<svg width="20" height="20" viewBox="0 0 20 20" fill="none" xmlns="http://www.w3.org/2000/svg">
<g clip-path="url(#clip0_211_44)">
<path d="M10 20C15.5228 20 20 15.5228 20 10C20 4.47715 15.5228 0 10 0C4.47715 0 0 4.47715 0 10C0 15.5228 4.47715 20 10 20Z" fill="#1C1C1C"/>
<path d="M10 20C15.5228 20 20 15.5228 20 10C20 4.47715 15.5228 0 10 0C4.47715 0 0 4.47715 0 10C0 15.5228 4.47715 20 10 20Z" fill="url(#paint0_linear_211_44)"/>
<path d="M13.7682 9.2793L14.227 11.0319H9.58789V9.2793H13.7682Z" fill="white"/>
<path d="M12.7181 4.74219L15.3806 14.7422H13.587L11.3887 6.48577H9.60742V4.74219H12.7181Z" fill="white"/>
<path d="M6.94938 4.74227H8.55759V13.0927H10.4118V14.7422H4.92866L4.92881 13.1268H4.94789V13.0927H6.78161L6.7913 6.89581C6.47657 7.13619 6.15125 7.32665 5.8152 7.46688C5.43721 7.62852 5.045 7.69988 4.63867 7.68088V6.183C4.85599 6.19248 5.10174 6.13071 5.37574 5.9976C5.65923 5.85496 5.93804 5.66948 6.21208 5.44127C6.469 5.2273 6.70086 5.00884 6.90795 4.78652V4.74227H6.94916L6.94923 4.74219L6.94938 4.74227Z" fill="white"/>
<g opacity="0.3">
<path d="M14.3873 9.79297L14.8462 11.5455H10.207V9.79297H14.3873Z" fill="white"/>
<path d="M13.3373 5.25781L15.9998 15.2578H14.2061L12.0078 7.0014H10.2266V5.25781H13.3373Z" fill="white"/>
<path d="M7.56853 5.25788H9.17673V13.6084H11.031V15.2578H5.54788L5.54796 13.6424H5.56711V13.6084H7.40076L7.41052 7.41144C7.09579 7.65182 6.77041 7.84227 6.43434 7.9825C6.05634 8.14414 5.66416 8.21555 5.25781 8.19648V6.69862C5.47516 6.70812 5.72086 6.64634 5.99489 6.51323C6.27838 6.37059 6.55718 6.18511 6.83123 5.95689C7.08815 5.74292 7.32 5.52448 7.5271 5.30213V5.25788H7.5683L7.56845 5.25781L7.56853 5.25788Z" fill="white"/>
</g>
</g>
<defs>
<linearGradient id="paint0_linear_211_44" x1="0" y1="10" x2="18.5" y2="10" gradientUnits="userSpaceOnUse">
<stop stop-color="#AD3B6C"/>
<stop offset="1" stop-color="#E6543B"/>
</linearGradient>
<clipPath id="clip0_211_44">
<rect width="20" height="20" fill="white"/>
</clipPath>
</defs>
</svg>
